<svg width="189" height="133" viewBox="0 0 189 133" fill="none" xmlns="http://www.w3.org/2000/svg">
<rect x="0.622559" y="0.5" width="169.559" height="131.536" rx="3.5" stroke="#B3B3B3"/>
<path d="M0.622559 4C0.622559 2.06701 2.18956 0.5 4.12256 0.5H166.681C168.614 0.5 170.181 2.067 170.181 4V12.5363H0.622559V4Z" stroke="#B3B3B3"/>
<circle cx="24.5655" cy="5.97469" r="2.7159" fill="#B3B3B3"/>
<circle cx="16.961" cy="5.97469" r="2.7159" fill="#B3B3B3"/>
<circle cx="9.35653" cy="5.97469" r="2.7159" fill="#B3B3B3"/>
<rect x="138.905" y="61.9224" width="49.9726" height="9.77724" fill="#F9F9F9"/>
<path d="M187.593 67.708C187.788 67.5128 187.788 67.1962 187.593 67.0009L184.411 63.819C184.216 63.6237 183.899 63.6237 183.704 63.819C183.509 64.0142 183.509 64.3308 183.704 64.5261L186.532 67.3545L183.704 70.1829C183.509 70.3782 183.509 70.6948 183.704 70.89C183.899 71.0853 184.216 71.0853 184.411 70.89L187.593 67.708ZM142.182 67.8545H187.239V66.8545H142.182V67.8545Z" fill="#B3B3B3"/>
</svg>
