<svg width="90" height="20" viewBox="0 0 90 20" fill="none" xmlns="http://www.w3.org/2000/svg">
<path fill-rule="evenodd" clip-rule="evenodd" d="M21.4517 7.28595C21.3098 7.82249 21.0347 8.21628 20.6264 8.46772C20.2177 8.71911 19.6444 8.84506 18.9049 8.84506H16.5556L17.3803 5.72708H19.7296C20.4685 5.72708 20.9758 5.8528 21.2514 6.10418C21.5265 6.35586 21.5936 6.7497 21.4517 7.28595ZM23.8846 7.21876C24.1834 6.09053 24.0595 5.2243 23.5133 4.62087C22.9669 4.01743 22.0096 3.71588 20.6424 3.71588H15.3981L12.2417 15.6499H14.7896L16.0621 10.8393H17.733C18.1077 10.8393 18.4026 10.9009 18.6183 11.0238C18.8345 11.147 18.961 11.365 19.0001 11.6774L19.4546 15.6499H22.1845L21.7416 11.9458C21.6514 11.1189 21.2779 10.6328 20.6215 10.4876C21.4583 10.242 22.1592 9.83369 22.7237 9.26372C23.2877 8.69405 23.675 8.01256 23.8846 7.21876Z" fill="#072654"/>
<path fill-rule="evenodd" clip-rule="evenodd" d="M30.0769 11.3758C29.864 12.1802 29.536 12.795 29.0932 13.2195C28.6497 13.6443 28.1193 13.8564 27.5021 13.8564C26.8726 13.8564 26.4457 13.6471 26.2207 13.2279C25.9945 12.809 25.9868 12.203 26.197 11.4092C26.4066 10.616 26.7411 9.9959 27.2016 9.54853C27.6616 9.10203 28.2002 8.87825 28.818 8.87825C29.4353 8.87825 29.8535 9.09371 30.0702 9.52376C30.2871 9.95382 30.2898 10.5712 30.0769 11.3758ZM31.1937 7.15186L30.8746 8.35873C30.7365 7.92281 30.4697 7.57663 30.0747 7.31966C29.6791 7.0627 29.1889 6.9339 28.6046 6.9339C27.8877 6.9339 27.1983 7.12123 26.537 7.49554C25.8757 7.8701 25.2974 8.39803 24.8029 9.07947C24.3082 9.7612 23.9457 10.5377 23.7151 11.4092C23.4846 12.2811 23.4384 13.0493 23.577 13.714C23.7157 14.379 24.0161 14.8901 24.4788 15.2477C24.9409 15.6056 25.5363 15.784 26.2641 15.784C26.8484 15.784 27.4052 15.6611 27.9334 15.4152C28.4615 15.1697 28.9099 14.8286 29.2791 14.3929L28.9463 15.6499H31.411L33.6586 7.15186H31.1937Z" fill="#072654"/>
<path fill-rule="evenodd" clip-rule="evenodd" d="M42.5219 7.15186H35.3585L34.8578 9.04604H39.0265L33.5148 13.8731L33.0444 15.6499H40.4394L40.9406 13.756H36.4743L42.0696 8.8615L42.5219 7.15186Z" fill="#072654"/>
<path fill-rule="evenodd" clip-rule="evenodd" d="M48.8283 11.3591C48.6066 12.1969 48.2781 12.8232 47.8435 13.2366C47.4089 13.6499 46.8829 13.8564 46.2656 13.8564C44.9748 13.8564 44.5501 13.0244 44.9903 11.3591C45.2092 10.5322 45.5393 9.90925 45.9806 9.49035C46.4223 9.07116 46.9572 8.86157 47.586 8.86157C48.2033 8.86157 48.6198 9.07116 48.8344 9.49035C49.0489 9.90925 49.0473 10.5322 48.8283 11.3591ZM50.2704 7.47021C49.7031 7.11287 48.9785 6.93396 48.096 6.93396C47.2025 6.93396 46.3751 7.11287 45.6131 7.47021C44.8511 7.82808 44.2024 8.34206 43.6671 9.01234C43.1312 9.68292 42.745 10.465 42.5084 11.3591C42.2718 12.2533 42.2443 13.0351 42.4259 13.7057C42.6069 14.3762 42.9832 14.8902 43.5565 15.2478C44.1292 15.6057 44.8621 15.784 45.7556 15.784C46.638 15.784 47.4572 15.6057 48.2138 15.2478C48.9692 14.8902 49.6156 14.3762 50.1515 13.7057C50.6868 13.0351 51.073 12.2533 51.3096 11.3591C51.5462 10.465 51.5737 9.68292 51.3927 9.01234C51.2111 8.34206 50.837 7.82808 50.2704 7.47021Z" fill="#072654"/>
<path fill-rule="evenodd" clip-rule="evenodd" d="M76.0503 11.3758C75.8374 12.1802 75.5094 12.795 75.0665 13.2195C74.6236 13.6443 74.0922 13.8564 73.4749 13.8564C72.8466 13.8564 72.4191 13.6471 72.194 13.2279C71.9679 12.809 71.9602 12.203 72.1704 11.4092C72.38 10.616 72.7145 9.9959 73.175 9.54853C73.6349 9.10203 74.1736 8.87825 74.7914 8.87825C75.4087 8.87825 75.8269 9.09371 76.0436 9.52376C76.2605 9.95382 76.2632 10.5712 76.0503 11.3758ZM77.1671 7.15186L76.848 8.35873C76.7099 7.92281 76.4431 7.57663 76.048 7.31966C75.6525 7.0627 75.1623 6.9339 74.578 6.9339C73.8611 6.9339 73.1717 7.12123 72.5104 7.49554C71.8491 7.8701 71.2708 8.39803 70.7763 9.07947C70.2816 9.7612 69.919 10.5377 69.6885 11.4092C69.458 12.2811 69.4123 13.0493 69.5504 13.714C69.6891 14.379 69.989 14.8901 70.4522 15.2477C70.9144 15.6056 71.5097 15.784 72.2375 15.784C72.8218 15.784 73.3786 15.6611 73.9068 15.4152C74.4349 15.1697 74.8833 14.8286 75.2525 14.3929L74.9197 15.6499H77.3844L79.6319 7.15186H77.1671Z" fill="#072654"/>
<path fill-rule="evenodd" clip-rule="evenodd" d="M59.0584 9.43152L59.6867 7.11844C59.4732 7.00666 59.1904 6.95068 58.8377 6.95068C58.2749 6.95068 57.733 7.09309 57.2109 7.37819C56.7625 7.6228 56.3806 7.96614 56.0582 8.39634L56.3851 7.15071L55.6714 7.15191H53.921L51.6562 15.6499H54.1551L55.3298 11.2084C55.5009 10.5603 55.8079 10.0547 56.2519 9.69156C56.6948 9.3284 57.2477 9.14666 57.9096 9.14666C58.3178 9.14666 58.7002 9.24169 59.0584 9.43152Z" fill="#072654"/>
<path fill-rule="evenodd" clip-rule="evenodd" d="M66.0137 11.4091C65.8035 12.2029 65.4778 12.8089 65.0366 13.2278C64.5943 13.647 64.0649 13.8563 63.4477 13.8563C62.8298 13.8563 62.409 13.6442 62.185 13.2194C61.9605 12.7949 61.955 12.1803 62.1679 11.3757C62.3809 10.5711 62.712 9.95367 63.1621 9.52361C63.6121 9.09355 64.1464 8.87809 64.7642 8.87809C65.3705 8.87809 65.7826 9.10192 66.001 9.54872C66.2189 9.99575 66.2233 10.6162 66.0137 11.4091ZM67.76 7.49539C67.2962 7.12107 66.7058 6.93408 65.9895 6.93408C65.3606 6.93408 64.7621 7.07928 64.1953 7.36972C63.627 7.66069 63.1666 8.05674 62.8133 8.55981L62.8213 8.50406L63.2411 7.15055H62.758V7.15176H60.8018L60.1807 9.50173C60.1735 9.52905 60.1675 9.55454 60.1603 9.58214L57.5981 19.2704H60.0965L61.3867 14.3931C61.5132 14.8284 61.7762 15.1696 62.1746 15.4151C62.5729 15.6609 63.0642 15.7839 63.649 15.7839C64.377 15.7839 65.069 15.6055 65.7265 15.2476C66.3834 14.8903 66.9545 14.3789 67.4387 13.7139C67.9234 13.0494 68.281 12.2809 68.5115 11.4091C68.7421 10.5376 68.7899 9.7611 68.6562 9.07937C68.5226 8.39787 68.2232 7.86999 67.76 7.49539Z" fill="#072654"/>
<path fill-rule="evenodd" clip-rule="evenodd" d="M89.9775 7.15427L89.9791 7.15192H88.4658C88.4175 7.15192 88.3748 7.15331 88.3306 7.15427H87.5451L87.1435 7.72121C87.1113 7.76391 87.0791 7.80691 87.0445 7.85678L87.0007 7.92243L83.8089 12.4263L83.147 7.15192H80.5325L81.8565 15.1667L78.9326 19.2705H79.016H80.5089H81.5374L82.2461 18.2535C82.2669 18.2232 82.2848 18.1984 82.3071 18.1664L83.134 16.9786L83.1577 16.9446L86.8577 11.6305L89.975 7.15778L89.9791 7.15427H89.9775Z" fill="#072654"/>
<path fill-rule="evenodd" clip-rule="evenodd" d="M5.82066 5.08307L5.07275 7.87171L9.35231 5.06739L6.55362 15.6473L9.3957 15.65L13.5301 0.0231934L5.82066 5.08307Z" fill="#3395FF"/>
<path fill-rule="evenodd" clip-rule="evenodd" d="M1.21468 11.2023L0.0380859 15.6499H5.86369C5.86369 15.6499 8.24651 6.60422 8.24717 6.60162C8.24494 6.60307 1.21468 11.2023 1.21468 11.2023Z" fill="#072654"/>
</svg>
