<svg width="1440" height="88" viewBox="0 0 1440 88" fill="none" xmlns="http://www.w3.org/2000/svg">
<path d="M1059.56 39.6393C970.387 40.7128 884.122 50.1319 798.038 46.6702C671.315 41.5743 603.465 15.9046 471.714 16.0003C362.007 16.0799 312.57 36.7718 230.631 47.082C147.919 57.4896 -3.87132 70.4765 -18 86H1495C1463.64 70.4548 1507.44 48.9569 1416.09 39.2306C1320.35 29.0373 1179 38.2017 1059.56 39.6393Z" fill="white"/>
<path opacity="0.5" d="M391.083 29.718C482.442 31.0675 570.816 42.9086 659.006 38.5568C788.828 32.1506 858.337 -0.119882 993.31 0.000335008C1105.7 0.100438 1156.35 26.1131 1240.29 39.0745C1325.02 52.1583 1480.53 68.4847 1495 88H-55C-22.8772 68.4575 -67.7472 41.4315 25.8396 29.2042C123.92 16.3897 268.729 27.9107 391.083 29.718Z" fill="white"/>
</svg>
