<svg width="60" height="60" viewBox="0 0 60 60" fill="none" xmlns="http://www.w3.org/2000/svg">
<path d="M57.4388 31.3386C56.7035 32.126 56.5957 33.3071 57.1741 34.2224L58.6937 36.6043C59.4486 37.7953 58.9976 39.3799 57.7329 40L55.1937 41.2205C54.2231 41.6831 53.6937 42.7559 53.9094 43.8091L54.4682 46.5846C54.7427 47.9724 53.7525 49.2913 52.3506 49.3996L49.5466 49.6161C48.478 49.7047 47.5957 50.502 47.4192 51.565L46.9388 54.3504C46.7035 55.7382 45.3015 56.6142 43.9486 56.2106L41.2525 55.3937C40.2231 55.0886 39.1153 55.5118 38.5662 56.437L37.1153 58.8583C36.3898 60.0689 34.7721 60.374 33.6643 59.5079L31.4388 57.7756C30.5957 57.1161 29.4094 57.1161 28.5564 57.7756L26.331 59.5079C25.2231 60.374 23.6055 60.0689 22.88 58.8583L21.429 56.437C20.88 55.5118 19.7721 55.0787 18.7427 55.3937L16.0466 56.2008C14.6937 56.6043 13.3015 55.7382 13.0564 54.3504L12.5761 51.565C12.3996 50.502 11.5172 49.6949 10.4486 49.6161L7.64468 49.3996C6.24272 49.2913 5.25252 47.9724 5.52703 46.5846L6.08585 43.8091C6.30154 42.7559 5.77213 41.6831 4.80154 41.2205L2.26233 40C0.987816 39.3898 0.54664 37.7953 1.30154 36.6043L2.82115 34.2224C3.39958 33.3169 3.29174 32.126 2.55644 31.3386L0.634875 29.2717C-0.325909 28.2382 -0.178851 26.5945 0.958404 25.7579L3.23291 24.0846C4.09566 23.4449 4.41919 22.3031 4.01723 21.2992L2.9584 18.6811C2.42899 17.372 3.16429 15.8957 4.52703 15.5217L7.24272 14.7835C8.28193 14.5079 8.99762 13.5531 8.97801 12.4705L8.9388 9.64567C8.91919 8.22835 10.1349 7.11614 11.5368 7.27362L14.3408 7.57874C15.4094 7.69685 16.4192 7.06693 16.7917 6.05315L17.7721 3.40551C18.2623 2.07677 19.7917 1.48622 21.0466 2.12598L23.5466 3.44488C24.4976 3.93701 25.6643 3.72047 26.38 2.91339L28.2427 0.797244C29.1741 -0.265748 30.8211 -0.265748 31.7525 0.797244L33.6251 2.91339C34.331 3.72047 35.4976 3.93701 36.4584 3.44488L38.9584 2.14567C40.2133 1.49606 41.7427 2.09646 42.2329 3.4252L43.2133 6.07283C43.5859 7.08661 44.5957 7.70669 45.6643 7.59842L48.4682 7.29331C49.8702 7.14567 51.0859 8.25787 51.0662 9.66535L51.027 12.4902C51.0074 13.5728 51.7231 14.5177 52.7623 14.8031L55.478 15.5413C56.8408 15.9055 57.5662 17.3917 57.0466 18.7008L55.978 21.3091C55.576 22.313 55.8996 23.4547 56.7623 24.0945L59.0368 25.7677C60.1741 26.6043 60.3211 28.248 59.3604 29.2815L57.4388 31.3386Z" fill="#11B35B"/>
</svg>
