<svg width="36" height="36" viewBox="0 0 36 36" fill="none" xmlns="http://www.w3.org/2000/svg">
<path d="M0.957031 17.9998C0.957031 25.3686 5.68203 31.6123 12.207 33.9186V2.08105C5.68203 4.3873 0.957031 10.6311 0.957031 17.9998Z" fill="#75A843"/>
<path d="M34.707 17.9998C34.707 10.6311 29.982 4.3873 23.457 2.08105V33.9186C30.0383 31.6123 34.707 25.3686 34.707 17.9998" fill="#ED4C5C"/>
<path d="M12.207 33.9187C13.9508 34.5375 15.8633 34.875 17.832 34.875C19.8008 34.875 21.7133 34.5375 23.457 33.9187V2.08125C21.7133 1.4625 19.8008 1.125 17.832 1.125C15.8633 1.125 13.9508 1.4625 12.207 2.08125V33.9187" fill="white"/>
</svg>
