<svg width="36" height="36" viewBox="0 0 36 36" fill="none" xmlns="http://www.w3.org/2000/svg">
<path d="M12.3758 33.9188V26.1562L6.58203 30.4312C8.21328 31.95 10.182 33.1313 12.3758 33.9188" fill="#2A5F9E"/>
<path d="M23.625 33.9184C25.8187 33.1309 27.7875 31.9496 29.4187 30.4309L23.625 26.0996V33.9184Z" fill="#2A5F9E"/>
<path d="M2.08203 23.625C2.25078 24.1875 2.47578 24.6938 2.75703 25.2563L4.95078 23.625H2.08203Z" fill="#2A5F9E"/>
<path d="M31.0508 23.625L33.2445 25.2563C33.4695 24.75 33.6945 24.1875 33.9195 23.625H31.0508Z" fill="#2A5F9E"/>
<path d="M13.2191 21.375H1.46289C1.63164 22.1625 1.85664 22.8938 2.08164 23.625H4.95039L2.75664 25.2563C3.20664 26.2125 3.71289 27.0562 4.33164 27.9L10.1254 23.625H12.3754V24.75L5.79414 29.5875L6.58164 30.375L12.3754 26.1563V33.9188C13.1066 34.2 13.8379 34.3688 14.6254 34.5375V21.375H13.2191Z" fill="white"/>
<path d="M34.5375 21.375H21.375V34.5375C22.1625 34.3688 22.8938 34.1438 23.625 33.9188V26.1563L29.4187 30.375C30.2062 29.6438 30.8812 28.8563 31.5562 28.0125L25.5375 23.625H29.3625L32.7937 26.1563C32.9625 25.875 33.1312 25.5375 33.2437 25.2563L31.05 23.625H33.9187C34.1437 22.8938 34.3688 22.1625 34.5375 21.375" fill="white"/>
<path d="M4.33203 27.9004C4.78203 28.5191 5.23203 29.0816 5.73828 29.6441L12.3758 24.8066V23.6816H10.1258L4.33203 27.9004Z" fill="#ED4C5C"/>
<path d="M25.5938 23.625L31.6125 28.0125C31.8375 27.7312 32.0062 27.45 32.2312 27.1687C32.2875 27.1125 32.2875 27.0562 32.3438 27.0562C32.5125 26.775 32.7375 26.4375 32.9062 26.1562L29.3625 23.625H25.5938Z" fill="#ED4C5C"/>
<path d="M23.625 2.08105V9.84356L29.4187 5.56855C27.7875 4.0498 25.8187 2.86855 23.625 2.08105Z" fill="#2A5F9E"/>
<path d="M12.3758 2.08105C10.182 2.86855 8.21328 4.0498 6.58203 5.56855L12.3758 9.8998V2.08105Z" fill="#2A5F9E"/>
<path d="M33.9195 12.3744C33.7508 11.8119 33.5258 11.3057 33.2445 10.7432L31.0508 12.3744H33.9195" fill="#2A5F9E"/>
<path d="M4.95078 12.3744L2.75703 10.7432C2.53203 11.3057 2.30703 11.8119 2.08203 12.3744H4.95078Z" fill="#2A5F9E"/>
<path d="M22.7812 14.6254H34.4812C34.3125 13.8379 34.0875 13.1066 33.8625 12.3754H30.9937L33.1875 10.7441C32.7375 9.78789 32.2312 8.94414 31.6125 8.10039L25.875 12.3754H23.625V11.2504L30.2062 6.41289L29.4187 5.62539L23.625 9.84414V2.08164C22.8937 1.80039 22.1625 1.63164 21.375 1.46289V14.6254H22.7812Z" fill="white"/>
<path d="M1.46289 14.6254H14.6254V1.46289C13.8379 1.63164 13.1066 1.85664 12.3754 2.08164V9.84414L6.58164 5.62539C5.79414 6.35664 5.11914 7.14414 4.44414 7.98789L10.4629 12.3754H6.63789L3.20664 9.84414C3.03789 10.1254 2.86914 10.4629 2.75664 10.7441L4.95039 12.3754H2.08164C1.85664 13.1066 1.63164 13.8379 1.46289 14.6254Z" fill="white"/>
<path d="M31.6687 8.1002C31.2187 7.48145 30.7687 6.91895 30.2625 6.35645L23.625 11.1939V12.3189H25.875L31.6687 8.1002" fill="#ED4C5C"/>
<path d="M10.4066 12.3748L4.44414 7.9873C4.21914 8.26855 4.05039 8.5498 3.82539 8.83105C3.76914 8.8873 3.76914 8.94355 3.71289 8.94355C3.54414 9.2248 3.31914 9.5623 3.15039 9.84355L6.58164 12.3748H10.4066Z" fill="#ED4C5C"/>
<path d="M34.5375 14.625H21.375V1.4625C20.3063 1.2375 19.1812 1.125 18 1.125C16.8188 1.125 15.6937 1.2375 14.625 1.4625V14.625H1.4625C1.2375 15.6937 1.125 16.8188 1.125 18C1.125 19.1812 1.2375 20.3063 1.4625 21.375H14.625V34.5375C15.6937 34.7625 16.8188 34.875 18 34.875C19.1812 34.875 20.3063 34.7625 21.375 34.5375V21.375H34.5375C34.7625 20.3063 34.875 19.1812 34.875 18C34.875 16.8188 34.7625 15.6937 34.5375 14.625Z" fill="#ED4C5C"/>
</svg>
