<svg width="50" height="30" viewBox="0 0 50 30" fill="none" xmlns="http://www.w3.org/2000/svg">
    <path d="M48 0H2C0.89543 0 0 0.89543 0 2V28C0 29.1046 0.89543 30 2 30H48C49.1046 30 50 29.1046 50 28V2C50 0.89543 49.1046 0 48 0Z" fill="#0072CE"/>
    <path fill-rule="evenodd" clip-rule="evenodd" d="M42.2037 17.333H40.4371C40.2608 17.333 40.1436 17.3395 40.0449 17.406C39.9427 17.4715 39.9033 17.5687 39.9033 17.697C39.9033 17.8495 39.9896 17.9533 40.1152 17.9982C40.2175 18.0336 40.3273 18.044 40.4888 18.044L41.0141 18.058C41.5442 18.0711 41.898 18.1619 42.1138 18.3835C42.153 18.4143 42.1766 18.449 42.2037 18.4836V17.333ZM42.2037 19.999C41.9682 20.3422 41.5094 20.5163 40.8884 20.5163H39.0165V19.6491H40.8808C41.0657 19.6491 41.1951 19.6249 41.273 19.549C41.3405 19.4865 41.3876 19.3956 41.3876 19.2853C41.3876 19.1675 41.3405 19.0739 41.2692 19.0178C41.1989 18.9561 41.0965 18.9281 40.9277 18.9281C40.0176 18.8972 38.8822 18.9561 38.8822 17.6765C38.8822 17.0899 39.2558 16.4725 40.2729 16.4725H42.2035V15.668H40.4098C39.8684 15.668 39.4752 15.7972 39.1967 15.9982V15.668H36.5434C36.1191 15.668 35.6211 15.7728 35.3855 15.9982V15.668H30.6475V15.9982C30.2704 15.727 29.6341 15.668 29.3405 15.668H26.2152V15.9982C25.9169 15.7102 25.2535 15.668 24.8491 15.668H21.3514L20.551 16.5316L19.8014 15.668H14.5766V21.3105H19.7031L20.5278 20.4332L21.3047 21.3105L24.4647 21.3133V19.9859H24.7754C25.1947 19.9924 25.6892 19.9756 26.1254 19.7875V21.3103H28.7319V19.8397H28.8576C29.0181 19.8397 29.0338 19.8463 29.0338 20.0062V21.3102H36.9517C37.4544 21.3102 37.9798 21.1819 38.2708 20.9492V21.3102H40.7823C41.3049 21.3102 41.8153 21.2372 42.2037 21.0501V19.999ZM38.3373 18.3835C38.5261 18.5782 38.6272 18.8241 38.6272 19.2403C38.6272 20.1102 38.0821 20.5163 37.1046 20.5163H35.2167V19.6491H37.097C37.2808 19.6491 37.4112 19.6249 37.4929 19.549C37.5596 19.4865 37.6074 19.3956 37.6074 19.2853C37.6074 19.1675 37.5557 19.0739 37.4891 19.0178C37.415 18.9561 37.3127 18.9281 37.144 18.9281C36.2375 18.8972 35.1024 18.9561 35.1024 17.6765C35.1024 17.0899 35.472 16.4725 36.4881 16.4725H38.4313V17.3332H36.6533C36.477 17.3332 36.3624 17.3398 36.2649 17.4063C36.1588 17.4717 36.1194 17.5689 36.1194 17.6972C36.1194 17.8498 36.2095 17.9535 36.3315 17.9984C36.4337 18.0339 36.5435 18.0443 36.7087 18.0443L37.2304 18.0583C37.7566 18.0711 38.1178 18.1618 38.3373 18.3835ZM29.5912 18.1338C29.4616 18.2105 29.3012 18.217 29.1126 18.217H27.9351V17.3088H29.1286C29.3012 17.3088 29.4739 17.3125 29.5912 17.3819C29.7168 17.4473 29.7919 17.5726 29.7919 17.7456C29.7919 17.9187 29.7168 18.058 29.5912 18.1338ZM30.1766 18.637C30.3923 18.7164 30.5687 18.8587 30.6514 18.9765C30.7882 19.1739 30.8081 19.3582 30.812 19.7146V20.5163H29.8389V20.0103C29.8389 19.767 29.8624 19.4068 29.6822 19.2188C29.5406 19.0739 29.3247 19.0393 28.9711 19.0393H27.9353V20.5163H26.9613V16.4724H29.1991C29.6898 16.4724 30.0472 16.494 30.3653 16.6633C30.6712 16.8475 30.8636 17.0999 30.8636 17.5612C30.8635 18.2067 30.4317 18.536 30.1766 18.637ZM31.401 16.4724H34.636V17.3087H32.3663V18.0439H34.5806V18.8689H32.3663V19.6735L34.636 19.6772V20.5163H31.401V16.4724ZM24.8615 18.3386H23.6089V17.3088H24.8727C25.2227 17.3088 25.4656 17.451 25.4656 17.8046C25.4656 18.1544 25.2339 18.3386 24.8615 18.3386ZM22.6435 20.1485L21.1554 18.5013L22.6435 16.9064V20.1485ZM18.8004 19.6735H16.4173V18.8689H18.5453V18.0439H16.4173V17.3087H18.8474L19.9076 18.4871L18.8004 19.6735ZM26.5062 17.8046C26.5062 18.928 25.6656 19.1599 24.8183 19.1599H23.6089V20.5163H21.725L20.5315 19.1776L19.2911 20.5163H15.4518V16.4724H19.3502L20.5427 17.7979L21.7756 16.4724H24.8727C25.6419 16.4724 26.5062 16.6847 26.5062 17.8046Z" fill="white"/>
    <path fill-rule="evenodd" clip-rule="evenodd" d="M10.8274 11.8119L10.164 10.2002L9.50439 11.8119H10.8274ZM25.4422 11.1701C25.309 11.2507 25.1515 11.2534 24.9628 11.2534H23.7853V10.3554H24.9788C25.1477 10.3554 25.3239 10.363 25.4384 10.4284C25.5642 10.4873 25.6419 10.6126 25.6419 10.7858C25.6419 10.9625 25.5679 11.1047 25.4422 11.1701ZM33.8422 11.8119L33.1715 10.2002L32.5044 11.8119H33.8422ZM18.1841 13.5564H17.1905L17.1868 10.3901L15.7813 13.5564H14.9303L13.5212 10.3873V13.5564H11.5498L11.1773 12.6547H9.15923L8.78301 13.5564H7.73029L9.46598 9.51356H10.9061L12.5546 13.3413V9.51356H14.1365L15.405 12.2562L16.5702 9.51356H18.184V13.5564H18.1841ZM22.1444 13.5564H18.9065V9.51356H22.1444V10.3554H19.8758V11.0842H22.0899V11.9129H19.8758V12.7203H22.1444V13.5564ZM26.7097 10.6024C26.7097 11.247 26.2782 11.58 26.0267 11.68C26.2388 11.7605 26.42 11.9026 26.5062 12.0204C26.643 12.2215 26.6667 12.4011 26.6667 12.7622V13.5564H25.689L25.6854 13.0466C25.6854 12.8033 25.7087 12.4535 25.5324 12.259C25.3907 12.1168 25.1748 12.0859 24.8259 12.0859H23.7854V13.5564H22.8162V9.51356H25.0456C25.5409 9.51356 25.9059 9.52661 26.2192 9.7072C26.5259 9.8878 26.7097 10.1514 26.7097 10.6024ZM28.2608 13.5564H27.2718V9.51356H28.2608V13.5564ZM39.7345 13.5564H38.3609L36.5237 10.522V13.5564H34.5498L34.1726 12.6547H32.1591L31.7931 13.5564H30.659C30.1878 13.5564 29.5913 13.4525 29.2535 13.1093C28.9129 12.766 28.7356 12.301 28.7356 11.5658C28.7356 10.9663 28.8416 10.4181 29.2582 9.98499C29.5715 9.66233 30.0622 9.51356 30.7302 9.51356H31.6685V10.3798H30.7498C30.3961 10.3798 30.1964 10.4323 30.004 10.6193C29.8388 10.7896 29.7254 11.1114 29.7254 11.5351C29.7254 11.9683 29.8117 12.2805 29.9919 12.4846C30.1411 12.6445 30.4123 12.6931 30.6674 12.6931H31.1027L32.4688 9.51368H33.9211L35.5621 13.3377V9.51368H37.0379L38.7417 12.3293V9.51368H39.7345V13.5564ZM7.71903 14.3505H9.37511L9.74852 13.4525H10.5845L10.9569 14.3505H14.2154V13.664L14.5062 14.3534H16.1978L16.4886 13.6537V14.3505H24.5865L24.5827 12.8765H24.7394C24.8491 12.8803 24.8812 12.8904 24.8812 13.071V14.3505H29.0694V14.0074C29.4073 14.1878 29.9327 14.3505 30.6241 14.3505H32.3861L32.7632 13.4525H33.5992L33.9679 14.3505H37.3634V13.4975L37.8776 14.3505H40.5985V8.71191H37.9057V9.37784L37.5286 8.71191H34.7655V9.37784L34.4193 8.71191H30.687C30.0622 8.71191 29.513 8.79886 29.0694 9.04116V8.71191H26.4938V9.04116C26.2115 8.79142 25.8269 8.71191 25.3992 8.71191H15.9895L15.3581 10.1683L14.7098 8.71191H11.746V9.37784L11.4204 8.71191H8.89272L7.71891 11.3928V14.3505H7.71903Z" fill="white"/>
</svg>
