<svg width="50" height="30" viewBox="0 0 50 30" fill="none" xmlns="http://www.w3.org/2000/svg">
    <path d="M48 0H2C0.89543 0 0 0.89543 0 2V28C0 29.1046 0.89543 30 2 30H48C49.1046 30 50 29.1046 50 28V2C50 0.89543 49.1046 0 48 0Z" fill="#000066"/>
    <path fill-rule="evenodd" clip-rule="evenodd" d="M41.8282 14.9918C41.8282 20.5195 37.3653 25 31.8586 25C26.3531 25 21.8895 20.5195 21.8895 14.9918C21.8895 9.46402 26.3531 4.9834 31.8586 4.9834C37.3653 4.9834 41.8282 9.46402 41.8282 14.9918Z" fill="#CC0000"/>
    <path fill-rule="evenodd" clip-rule="evenodd" d="M24.1574 21.3475C23.8822 21.0124 23.6286 20.6582 23.3981 20.2875H26.9314C27.1435 19.9478 27.3349 19.5938 27.5059 19.2276H22.824C22.6643 18.8847 22.5225 18.5311 22.4018 18.1681H27.9272C28.26 17.1701 28.4398 16.1025 28.4398 14.9918C28.4398 14.2646 28.3626 13.5554 28.2161 12.8725H22.1138C22.191 12.5114 22.2884 12.158 22.4031 11.8126H27.9266C27.8054 11.4496 27.6644 11.0961 27.505 10.7532H22.8249C22.9959 10.3871 23.1878 10.0337 23.3992 9.6932H26.9303C26.6999 9.32341 26.4458 8.96992 26.171 8.63429H24.1587C24.4683 8.25707 24.8047 7.90295 25.1649 7.57507C23.3954 5.96449 21.0469 4.9834 18.4708 4.9834C12.9645 4.9834 8.50095 9.46402 8.50095 14.9918C8.50095 20.5195 12.9645 25 18.4708 25C21.0471 25 23.3958 24.0189 25.1649 22.4089C25.5256 22.0804 25.8625 21.7255 26.1721 21.3475H24.1574Z" fill="#0066CC"/>
    <path fill-rule="evenodd" clip-rule="evenodd" d="M25.0228 17.6964C24.5967 17.8096 24.1847 17.865 23.7492 17.864C22.3596 17.8627 21.6359 17.2274 21.6359 16.0124C21.6359 14.5929 22.5572 13.5488 23.8078 13.5488C24.8307 13.5488 25.4837 14.1342 25.4837 15.0514C25.4837 15.3557 25.4396 15.6522 25.3313 16.0714H22.8602C22.7723 16.6648 23.2038 16.9253 23.9386 16.9253C24.3787 16.9253 24.7765 16.8459 25.2174 16.668L25.0228 17.6964ZM24.3583 15.2342C24.3583 15.1447 24.4957 14.5076 23.7805 14.4939C23.3857 14.4939 23.1025 14.7574 22.988 15.2342H24.3583Z" fill="#000066"/>
    <path fill-rule="evenodd" clip-rule="evenodd" d="M25.8599 14.9562C25.8599 15.4805 26.1539 15.8429 26.8225 16.1125C27.3335 16.3226 27.4138 16.3835 27.4138 16.5712C27.4138 16.8314 27.1882 16.9506 26.6868 16.9475C26.3104 16.9448 25.9667 16.8988 25.5613 16.786L25.3819 17.7424C25.7424 17.8264 26.2477 17.8539 26.6956 17.8644C28.0301 17.8644 28.6462 17.4258 28.6462 16.4777C28.6462 15.9077 28.3892 15.5726 27.7554 15.3227C27.2257 15.1101 27.1636 15.0644 27.1636 14.8719C27.1636 14.646 27.3735 14.5318 27.7827 14.5318C28.0309 14.5318 28.3704 14.5546 28.6928 14.5938L28.8735 13.6322C28.5452 13.5865 28.0471 13.5498 27.7586 13.5498C26.3449 13.5498 25.8557 14.1886 25.8599 14.9562Z" fill="#000066"/>
    <path fill-rule="evenodd" clip-rule="evenodd" d="M20.9585 17.7955H19.9219L19.9466 17.3596C19.6305 17.7035 19.2094 17.8637 18.638 17.8637C17.9617 17.8637 17.4985 17.3995 17.4985 16.7319C17.4985 15.7171 18.3038 15.1317 19.6885 15.1317C19.8308 15.1317 20.0118 15.1425 20.1978 15.1635C20.2362 15.0277 20.2466 14.9691 20.2466 14.8954C20.2466 14.6177 20.0287 14.5154 19.446 14.5154C18.8715 14.5176 18.4839 14.6031 18.1242 14.7001L18.3013 13.7692C18.9234 13.6104 19.3305 13.5488 19.7914 13.5488C20.8636 13.5488 21.4299 13.9711 21.4299 14.7642C21.4389 14.9759 21.3657 15.4008 21.3286 15.5868C21.2867 15.8571 20.9895 17.4254 20.9585 17.7955ZM20.0486 15.9441C19.9173 15.9311 19.8601 15.9271 19.7701 15.9271C19.0631 15.9271 18.7047 16.1384 18.7047 16.5555C18.7047 16.8174 18.8796 16.9811 19.1523 16.9811C19.6603 16.9811 20.0271 16.5546 20.0486 15.9441Z" fill="#000066"/>
    <path fill-rule="evenodd" clip-rule="evenodd" d="M30.8304 17.7295C30.4904 17.823 30.2252 17.8638 29.9386 17.8638C29.3036 17.8638 28.9568 17.538 28.9568 16.9579C28.9368 16.7984 29.092 16.062 29.1273 15.8569C29.1622 15.6511 29.7123 12.6514 29.7123 12.6514H30.9461L30.7595 13.644H31.3923L31.2204 14.6567H30.5848C30.5848 14.6567 30.2361 16.415 30.2361 16.5495C30.2361 16.7625 30.3646 16.8552 30.6601 16.8552C30.8013 16.8552 30.9104 16.8419 30.9947 16.8166L30.8304 17.7295Z" fill="#000066"/>
    <path fill-rule="evenodd" clip-rule="evenodd" d="M36.3432 13.5488C35.4389 13.5488 34.7324 13.9229 34.3219 14.5467L34.6782 13.6211C34.0218 13.3793 33.5985 13.7245 33.2161 14.2152C33.2161 14.2152 33.152 14.2966 33.088 14.3711V13.6437H31.9296C31.7727 14.9275 31.4952 16.2295 31.2782 17.5162L31.2257 17.796H32.4719C32.5903 17.1431 32.6873 16.6132 32.7841 16.1906C33.0488 15.0313 33.4944 14.677 34.1633 14.8339C34.0088 15.1668 33.9242 15.5528 33.9242 15.9796C33.9242 17.0161 34.4845 17.864 35.8766 17.864C37.2812 17.864 38.2983 17.1108 38.2983 15.3933C38.2983 14.3575 37.6204 13.5488 36.3432 13.5488ZM35.9805 16.8567C35.5404 16.8635 35.2735 16.4927 35.2735 15.9379C35.2735 15.2805 35.6628 14.5377 36.2885 14.5377C36.7934 14.5377 36.9662 14.9395 36.9662 15.3677C36.9662 16.3028 36.5844 16.8567 35.9805 16.8567Z" fill="#000066"/>
    <path fill-rule="evenodd" clip-rule="evenodd" d="M16.9178 17.7959H15.6767L16.4143 13.8949L14.7162 17.7959H13.5848L13.3781 13.9179L12.6382 17.7959H11.5122L12.4711 12.7217H14.4106L14.5721 15.5504L15.8008 12.7217H17.896L16.9178 17.7959Z" fill="#000066"/>
    <path fill-rule="evenodd" clip-rule="evenodd" d="M25.3341 17.3837C24.9084 17.4971 24.4962 17.5525 24.0608 17.5515C22.6712 17.5502 21.9475 16.9147 21.9475 15.6999C21.9475 14.2804 22.8687 13.2363 24.1191 13.2363C25.1422 13.2363 25.7953 13.8217 25.7953 14.7387C25.7953 15.043 25.751 15.339 25.6429 15.7589H23.172C23.0839 16.3517 23.5152 16.6127 24.2499 16.6127C24.69 16.6127 25.0881 16.5333 25.5289 16.355L25.3341 17.3837ZM24.6696 14.9217C24.6696 14.832 24.807 14.1951 24.0922 14.1812C23.6973 14.1812 23.4142 14.4447 23.2993 14.9217H24.6696Z" fill="white"/>
    <path fill-rule="evenodd" clip-rule="evenodd" d="M26.1716 14.6435C26.1716 15.168 26.4655 15.53 27.1338 15.8C27.6452 16.0102 27.7254 16.071 27.7254 16.2582C27.7254 16.5189 27.4996 16.6381 26.9987 16.6351C26.6218 16.6323 26.2781 16.5863 25.873 16.4735L25.6932 17.4296C26.0539 17.5139 26.5595 17.5414 27.007 17.552C28.3414 17.552 28.9578 17.1133 28.9578 16.1649C28.9578 15.5952 28.7007 15.2597 28.067 15.0102C27.5372 14.7977 27.475 14.7514 27.475 14.5596C27.475 14.3337 27.6852 14.219 28.0942 14.219C28.3424 14.219 28.6818 14.2423 29.0043 14.2815L29.1851 13.3199C28.8567 13.2735 28.3586 13.2373 28.0704 13.2373C26.6564 13.2373 26.1672 13.8758 26.1716 14.6435Z" fill="white"/>
    <path fill-rule="evenodd" clip-rule="evenodd" d="M21.2702 17.4829H20.2332L20.2583 17.047C19.9421 17.3905 19.5212 17.5506 18.9497 17.5506C18.2736 17.5506 17.8099 17.0865 17.8099 16.4189C17.8099 15.4044 18.6153 14.8191 20 14.8191C20.1423 14.8191 20.3232 14.83 20.5095 14.8502C20.5479 14.7147 20.5581 14.6566 20.5581 14.5828C20.5581 14.3044 20.3404 14.2026 19.7579 14.2026C19.1832 14.2049 18.7956 14.2905 18.436 14.3876L18.6127 13.4565C19.2349 13.2977 19.6419 13.2363 20.1031 13.2363C21.1753 13.2363 21.7415 13.6582 21.7415 14.4515C21.7508 14.6634 21.677 15.0875 21.6405 15.2741C21.5981 15.5444 21.3011 17.1128 21.2702 17.4829ZM20.3601 15.6316C20.229 15.618 20.1716 15.6145 20.0815 15.6145C19.3748 15.6145 19.0162 15.8255 19.0162 16.2422C19.0162 16.5046 19.1914 16.6686 19.4637 16.6686C19.972 16.6686 20.3388 16.2416 20.3601 15.6316Z" fill="white"/>
    <path fill-rule="evenodd" clip-rule="evenodd" d="M31.1419 17.417C30.8017 17.5107 30.5367 17.5515 30.2499 17.5515C29.6149 17.5515 29.2684 17.2255 29.2684 16.6454C29.2483 16.4859 29.4035 15.7495 29.4386 15.5444C29.4739 15.3386 30.024 12.3389 30.024 12.3389H31.2576L31.0712 13.3312H31.7039L31.5319 14.3442H30.8964C30.8964 14.3442 30.5474 16.1025 30.5474 16.2363C30.5474 16.4502 30.6761 16.5422 30.9716 16.5422C31.1128 16.5422 31.2218 16.5296 31.3066 16.504L31.1419 17.417Z" fill="white"/>
    <path fill-rule="evenodd" clip-rule="evenodd" d="M37.278 15.0544C37.278 15.9903 36.8958 16.5442 36.2918 16.5442C35.8517 16.5505 35.585 16.1802 35.585 15.6254C35.585 14.9681 35.9743 14.225 36.5999 14.225C37.1049 14.225 37.278 14.6269 37.278 15.0544ZM38.6098 15.0807C38.6098 14.045 37.9318 13.2363 36.6548 13.2363C35.1858 13.2363 34.2357 14.2192 34.2357 15.6671C34.2357 16.7034 34.796 17.5515 36.1883 17.5515C37.5928 17.5515 38.6098 16.7983 38.6098 15.0807Z" fill="white"/>
    <path fill-rule="evenodd" clip-rule="evenodd" d="M32.2409 13.3307C32.0841 14.6148 31.8065 15.9167 31.5897 17.2032L31.5374 17.4835H32.7834C33.2325 14.9985 33.3833 14.2908 34.3244 14.5399L34.7771 13.3642C34.1205 13.1224 33.6981 13.4678 33.3157 13.9588C33.3502 13.7378 33.4151 13.5245 33.3995 13.3307H32.2409Z" fill="white"/>
    <path fill-rule="evenodd" clip-rule="evenodd" d="M17.2293 17.4835H15.9885L16.7259 13.5826L15.0277 17.4835H13.8963L13.6894 13.6054L12.9495 17.4835H11.8237L12.7825 12.4092H14.7221L14.8245 15.5506L16.1899 12.4092H18.2075L17.2293 17.4835Z" fill="white"/>
</svg>
