<svg width="50" height="30" viewBox="0 0 50 30" fill="none" xmlns="http://www.w3.org/2000/svg">
    <path d="M48 0H2C0.89543 0 0 0.89543 0 2V28C0 29.1046 0.89543 30 2 30H48C49.1046 30 50 29.1046 50 28V2C50 0.89543 49.1046 0 48 0Z" fill="#000066"/>
    <path fill-rule="evenodd" clip-rule="evenodd" d="M28.0643 15.243C28.0643 20.6321 23.696 25.0003 18.307 25.0003C12.9179 25.0003 8.54924 20.6321 8.54924 15.243C8.54924 9.85398 12.9179 5.48535 18.307 5.48535C23.696 5.48535 28.0643 9.85398 28.0643 15.243Z" fill="#CC0000"/>
    <path fill-rule="evenodd" clip-rule="evenodd" d="M31.407 5.48535C28.8852 5.48535 26.5883 6.44185 24.8563 8.01099C24.504 8.3308 24.1751 8.67621 23.8714 9.04397H25.8429C26.1121 9.3718 26.3602 9.71644 26.5867 10.0774H23.1274C22.9205 10.4091 22.7324 10.7537 22.5652 11.1109H27.1486C27.3053 11.4453 27.4432 11.7898 27.5619 12.1439H22.152C22.0394 12.4803 21.9444 12.8251 21.8685 13.1767H27.845C27.9881 13.8428 28.0643 14.5339 28.0643 15.243C28.0643 16.3262 27.8877 17.3689 27.5619 18.3427H22.152C22.2707 18.6964 22.4085 19.0414 22.5649 19.3763H27.1486C26.9812 19.7325 26.794 20.0774 26.5858 20.4096H23.1274C23.353 20.7695 23.6016 21.1146 23.8714 21.4419H25.8423C25.5393 21.81 25.21 22.1554 24.8566 22.4752C26.5884 24.0444 28.8852 25.0003 31.407 25.0003C36.7958 25.0003 41.1643 20.6321 41.1643 15.243C41.1643 9.85445 36.7958 5.48535 31.407 5.48535Z" fill="#FF9900"/>
    <path fill-rule="evenodd" clip-rule="evenodd" d="M16.0284 16.3107C15.9172 16.2981 15.8682 16.2941 15.7919 16.2941C15.1914 16.2941 14.8878 16.5001 14.8878 16.907C14.8878 17.1576 15.036 17.3169 15.2673 17.3169C15.6989 17.3169 16.0099 16.9061 16.0284 16.3107ZM16.7989 18.1042H15.9209L15.9411 17.6871C15.6734 18.0165 15.3162 18.1738 14.8309 18.1738C14.257 18.1738 13.8633 17.7257 13.8633 17.0745C13.8633 16.0942 14.5478 15.5226 15.7229 15.5226C15.8434 15.5226 15.9973 15.5337 16.1548 15.5536C16.1875 15.4207 16.1962 15.3643 16.1962 15.2926C16.1962 15.0261 16.0117 14.9262 15.5169 14.9262C14.9987 14.9209 14.5712 15.05 14.3956 15.1077C14.4067 15.0407 14.5425 14.2024 14.5425 14.2024C15.0702 14.0472 15.4184 13.9893 15.8102 13.9893C16.72 13.9893 17.2019 14.3976 17.2008 15.1695C17.2026 15.3766 17.1682 15.6312 17.115 15.967C17.0231 16.5499 16.8258 17.8 16.7989 18.1042Z" fill="#000066"/>
    <path fill-rule="evenodd" clip-rule="evenodd" d="M13.42 18.1046H12.3605L12.9677 14.3002L11.6124 18.1046H10.8906L10.8013 14.3215L10.1636 18.1046H9.17207L10.0003 13.1553H11.5236L11.6157 15.9256L12.545 13.1553H14.2392L13.42 18.1046Z" fill="#000066"/>
    <path fill-rule="evenodd" clip-rule="evenodd" d="M32.7159 16.3107C32.6047 16.2981 32.5563 16.2941 32.4801 16.2941C31.8792 16.2941 31.5759 16.5001 31.5759 16.907C31.5759 17.1576 31.7235 17.3169 31.9554 17.3169C32.3867 17.3169 32.6979 16.9061 32.7159 16.3107ZM33.4869 18.1042H32.6092L32.6291 17.6871C32.3614 18.0165 32.0043 18.1738 31.5193 18.1738C30.9446 18.1738 30.5514 17.7257 30.5514 17.0745C30.5514 16.0942 31.2362 15.5226 32.4111 15.5226C32.5313 15.5226 32.6849 15.5337 32.8427 15.5536C32.8755 15.4207 32.884 15.3643 32.884 15.2926C32.884 15.0261 32.6996 14.9262 32.2047 14.9262C31.6865 14.9209 31.2592 15.05 31.0829 15.1077C31.0947 15.0407 31.2308 14.2024 31.2308 14.2024C31.7582 14.0472 32.1067 13.9893 32.4979 13.9893C33.4083 13.9893 33.8895 14.3976 33.8886 15.1695C33.8905 15.3766 33.8564 15.6312 33.8029 15.967C33.7113 16.5499 33.5134 17.8 33.4869 18.1042Z" fill="#000066"/>
    <path fill-rule="evenodd" clip-rule="evenodd" d="M21.5066 18.0428C21.2166 18.1341 20.9907 18.1736 20.7455 18.1736C20.2041 18.1736 19.9085 17.8624 19.9085 17.2893C19.901 17.1113 19.9864 16.6433 20.0536 16.2165C20.115 15.8404 20.5131 13.4697 20.5131 13.4697H21.5659L21.443 14.079H22.079L21.9355 15.0464H21.2972C21.175 15.8117 21.0006 16.7653 20.9986 16.8917C20.9986 17.0993 21.1093 17.19 21.3614 17.19C21.4821 17.19 21.5756 17.1776 21.647 17.152L21.5066 18.0428Z" fill="#000066"/>
    <path fill-rule="evenodd" clip-rule="evenodd" d="M24.735 18.0105C24.3732 18.121 24.0246 18.175 23.6546 18.1738C22.4758 18.1722 21.8613 17.557 21.8613 16.3781C21.8613 15.0024 22.6429 13.9893 23.7043 13.9893C24.5723 13.9893 25.1269 14.5564 25.1269 15.4455C25.1269 15.7411 25.089 16.0292 24.997 16.4356H22.9001C22.8294 17.0196 23.2028 17.2628 23.8158 17.2628C24.1922 17.2628 24.5324 17.185 24.9103 17.0097L24.735 18.0105ZM24.1432 15.6244C24.1492 15.5404 24.2546 14.9058 23.6528 14.9058C23.3179 14.9058 23.0778 15.1615 22.9805 15.6244H24.1432Z" fill="#000066"/>
    <path fill-rule="evenodd" clip-rule="evenodd" d="M17.4343 15.3518C17.4343 15.8605 17.681 16.2116 18.2407 16.4754C18.6696 16.6773 18.7363 16.7369 18.7363 16.9197C18.7363 17.1702 18.547 17.284 18.128 17.284C17.8117 17.284 17.5178 17.2344 17.1788 17.1248C17.1788 17.1248 17.0398 18.0123 17.0332 18.0547C17.2739 18.1069 17.4885 18.1554 18.1356 18.1738C19.2532 18.1738 19.7695 17.7482 19.7695 16.8284C19.7695 16.2754 19.5536 15.9508 19.0228 15.7066C18.5789 15.5029 18.5275 15.4572 18.5275 15.2694C18.5275 15.0518 18.7038 14.9407 19.046 14.9407C19.254 14.9407 19.5379 14.9629 19.8072 15.001L19.9579 14.0674C19.6837 14.0238 19.2677 13.9893 19.0256 13.9893C17.8407 13.9893 17.4304 14.6081 17.4343 15.3518Z" fill="#000066"/>
    <path fill-rule="evenodd" clip-rule="evenodd" d="M29.887 14.096C30.1812 14.096 30.456 14.1725 30.8336 14.3632L31.0071 13.2891C30.8513 13.228 30.3053 12.8701 29.8427 12.8701C29.134 12.8701 28.5342 13.2223 28.1131 13.8023C27.4981 13.5987 27.2451 14.0101 26.9354 14.4203L26.6602 14.4844C26.681 14.3495 26.7 14.2155 26.694 14.0797H25.7206C25.588 15.3257 25.3526 16.5874 25.1683 17.834L25.12 18.1047H26.1799C26.3567 16.9553 26.4534 16.2196 26.5123 15.7213L26.9114 15.5001C26.9714 15.2779 27.1575 15.2033 27.5319 15.2124C27.483 15.4749 27.4565 15.7513 27.4565 16.0374C27.4565 17.3544 28.168 18.1743 29.3078 18.1743C29.6015 18.1743 29.8538 18.1357 30.2444 18.0293L30.4301 16.9015C30.0788 17.0741 29.7912 17.1553 29.5305 17.1553C28.9146 17.1553 28.5419 16.7006 28.5419 15.9495C28.5419 14.8594 29.0958 14.096 29.887 14.096Z" fill="#000066"/>
    <path fill-rule="evenodd" clip-rule="evenodd" d="M38.8555 13.1553L38.6201 14.5852C38.3309 14.2041 38.0198 13.9281 37.609 13.9281C37.0745 13.9281 36.588 14.3334 36.2694 14.9301C35.8258 14.8381 35.3674 14.6815 35.3674 14.6815L35.3671 14.6854C35.4024 14.3519 35.4173 14.1489 35.4138 14.0795H34.4406C34.3085 15.3256 34.0727 16.5873 33.8886 17.8338L33.8399 18.1046H34.9C35.0431 17.1757 35.1524 16.4035 35.2331 15.7919C35.5954 15.4644 35.7768 15.1796 36.1421 15.1981C35.98 15.5901 35.8855 16.0413 35.8855 16.5042C35.8855 17.51 36.394 18.1742 37.1644 18.1742C37.5527 18.1742 37.8506 18.0402 38.1411 17.7299L38.0912 18.1043H39.0935L39.9004 13.1553H38.8555ZM37.5308 17.1748C37.1703 17.1748 36.9877 16.9074 36.9877 16.3813C36.9877 15.5901 37.329 15.0293 37.8093 15.0293C38.1733 15.0293 38.3707 15.3062 38.3707 15.8175C38.3707 16.6155 38.0238 17.1748 37.5308 17.1748Z" fill="#000066"/>
    <path fill-rule="evenodd" clip-rule="evenodd" d="M13.7246 17.8112H12.6654L13.2725 14.0068L11.9176 17.8112H11.1955L11.1063 14.0288L10.4684 17.8112H9.4769L10.3051 12.8623H11.8284L11.871 15.9259L12.8989 12.8623H14.5441L13.7246 17.8112Z" fill="white"/>
    <path fill-rule="evenodd" clip-rule="evenodd" d="M16.3333 16.0174C16.2222 16.0045 16.1732 16.0009 16.0969 16.0009C15.4964 16.0009 15.1927 16.2066 15.1927 16.6132C15.1927 16.8635 15.341 17.0237 15.5724 17.0237C16.0039 17.0237 16.3149 16.6129 16.3333 16.0174ZM17.1037 17.8103H16.2261L16.2461 17.3935C15.9785 17.7227 15.6212 17.8801 15.1359 17.8801C14.5618 17.8801 14.1683 17.4314 14.1683 16.7804C14.1683 15.8 14.853 15.2291 16.0281 15.2291C16.1482 15.2291 16.3021 15.2401 16.4599 15.2604C16.4926 15.1272 16.5012 15.0706 16.5012 14.9986C16.5012 14.7323 16.3168 14.6332 15.8219 14.6332C15.3035 14.627 14.8762 14.7561 14.7004 14.8136C14.7117 14.747 14.8474 13.9086 14.8474 13.9086C15.3752 13.7538 15.7234 13.6953 16.1152 13.6953C17.0249 13.6953 17.5066 14.1041 17.5058 14.8757C17.5075 15.0825 17.4734 15.3383 17.4201 15.6732C17.328 16.2556 17.1306 17.5065 17.1037 17.8103Z" fill="white"/>
    <path fill-rule="evenodd" clip-rule="evenodd" d="M31.3118 12.9953L31.1383 14.0693C30.76 13.8792 30.486 13.8023 30.1921 13.8023C29.4012 13.8023 28.8464 14.5666 28.8464 15.6568C28.8464 16.4079 29.2193 16.8617 29.8352 16.8617C30.0961 16.8617 30.3843 16.7811 30.7348 16.6079L30.5486 17.7357C30.1587 17.842 29.9062 17.8808 29.6126 17.8808C28.472 17.8808 27.7616 17.0608 27.7616 15.7441C27.7616 13.9748 28.7437 12.7383 30.1476 12.7383C30.6102 12.7383 31.1565 12.9343 31.3118 12.9953Z" fill="white"/>
    <path fill-rule="evenodd" clip-rule="evenodd" d="M33.0206 16.0174C32.9102 16.0045 32.861 16.0009 32.7849 16.0009C32.1847 16.0009 31.8808 16.2066 31.8808 16.6132C31.8808 16.8635 32.029 17.0237 32.2603 17.0237C32.6916 17.0237 33.0029 16.6129 33.0206 16.0174ZM33.7916 17.8103H32.9141L32.934 17.3935C32.6663 17.7227 32.309 17.8801 31.8242 17.8801C31.2495 17.8801 30.8564 17.4314 30.8564 16.7804C30.8564 15.8 31.5405 15.2291 32.7159 15.2291C32.836 15.2291 32.9896 15.2401 33.1472 15.2604C33.1801 15.1272 33.1887 15.0706 33.1887 14.9986C33.1887 14.7323 33.0047 14.6332 32.5096 14.6332C31.9916 14.627 31.5645 14.7561 31.3884 14.8136C31.3995 14.747 31.5354 13.9086 31.5354 13.9086C32.0632 13.7538 32.4111 13.6953 32.8029 13.6953C33.7125 13.6953 34.1947 14.1041 34.1935 14.8757C34.1956 15.0825 34.1612 15.3383 34.1079 15.6732C34.0161 16.2556 33.8188 17.5065 33.7916 17.8103Z" fill="white"/>
    <path fill-rule="evenodd" clip-rule="evenodd" d="M21.8114 17.7496C21.5216 17.8408 21.2954 17.8805 21.0505 17.8805C20.509 17.8805 20.2132 17.5691 20.2132 16.9966C20.2058 16.818 20.2914 16.3508 20.3588 15.9235C20.4197 15.5471 20.818 13.1768 20.818 13.1768H21.871L21.7478 13.7858H22.2885L22.1444 14.753H21.6021C21.4798 15.5191 21.3054 16.472 21.3033 16.5985C21.3033 16.8066 21.4145 16.8967 21.6663 16.8967C21.787 16.8967 21.8803 16.8848 21.952 16.8586L21.8114 17.7496Z" fill="white"/>
    <path fill-rule="evenodd" clip-rule="evenodd" d="M25.0403 17.7173C24.6784 17.8282 24.3289 17.8804 23.9595 17.8801C22.7805 17.8794 22.1665 17.2633 22.1665 16.0846C22.1665 14.7084 22.9479 13.6953 24.0085 13.6953C24.8774 13.6953 25.4318 14.2625 25.4318 15.1527C25.4318 15.4476 25.3932 15.7355 25.3023 16.1422H23.2051C23.1341 16.7261 23.508 16.9697 24.1203 16.9697C24.497 16.9697 24.837 16.8917 25.2154 16.7159L25.0403 17.7173ZM24.4483 15.3304C24.454 15.2463 24.5599 14.612 23.9583 14.612C23.623 14.612 23.3829 14.8682 23.2853 15.3304H24.4483Z" fill="white"/>
    <path fill-rule="evenodd" clip-rule="evenodd" d="M17.7389 15.0578C17.7389 15.5675 17.9859 15.9178 18.5458 16.1819C18.9747 16.3836 19.0411 16.4433 19.0411 16.6262C19.0411 16.8771 18.8519 16.9903 18.4327 16.9903C18.1167 16.9903 17.8226 16.9412 17.4834 16.8319C17.4834 16.8319 17.3446 17.7188 17.3382 17.7606C17.5787 17.8134 17.7935 17.8615 18.4402 17.8801C19.5582 17.8801 20.0744 17.4547 20.0744 16.5349C20.0744 15.9816 19.8582 15.6572 19.3276 15.4136C18.8835 15.2092 18.8325 15.1641 18.8325 14.9759C18.8325 14.7584 19.0086 14.6464 19.3511 14.6464C19.5586 14.6464 19.8428 14.6695 20.112 14.7075L20.2629 13.7741C19.9885 13.7308 19.5728 13.6953 19.3306 13.6953C18.1454 13.6953 17.7354 14.3143 17.7389 15.0578Z" fill="white"/>
    <path fill-rule="evenodd" clip-rule="evenodd" d="M39.3983 17.8112H38.3963L38.4459 17.4366C38.1553 17.747 37.8575 17.881 37.4692 17.881C36.6995 17.881 36.1902 17.2177 36.1902 16.2108C36.1902 14.872 36.9798 13.7436 37.9138 13.7436C38.3246 13.7436 38.6356 13.9113 38.9254 14.2925L39.1604 12.8623H40.2051L39.3983 17.8112ZM37.8355 16.8812C38.3291 16.8812 38.6754 16.3222 38.6754 15.525C38.6754 15.0135 38.4782 14.7357 38.1141 14.7357C37.6336 14.7357 37.2925 15.2967 37.2925 16.0882C37.2925 16.6149 37.4753 16.8812 37.8355 16.8812Z" fill="white"/>
    <path fill-rule="evenodd" clip-rule="evenodd" d="M34.7458 13.7864C34.6133 15.0322 34.3777 16.2938 34.1934 17.5405L34.1452 17.8111H35.2047C35.5837 15.3498 35.6748 14.8695 36.2694 14.9295C36.3639 14.4257 36.5402 13.9845 36.6714 13.7622C36.2278 13.6696 35.98 13.9204 35.6552 14.3969C35.6811 14.1907 35.7279 13.9907 35.7191 13.7864H34.7458Z" fill="white"/>
    <path fill-rule="evenodd" clip-rule="evenodd" d="M26.026 13.7864C25.8929 15.0322 25.657 16.2938 25.473 17.5405L25.4249 17.8111H26.4847C26.8639 15.3498 26.9547 14.8695 27.5484 14.9295C27.6435 14.4257 27.8201 13.9845 27.951 13.7622C27.5078 13.6696 27.2595 13.9204 26.9354 14.3969C26.961 14.1907 27.0081 13.9907 26.9988 13.7864H26.026Z" fill="white"/>
</svg>
