<svg width="50" height="30" viewBox="0 0 50 30" fill="none" xmlns="http://www.w3.org/2000/svg">
    <path d="M48 0H2C0.89543 0 0 0.89543 0 2V28C0 29.1046 0.89543 30 2 30H48C49.1046 30 50 29.1046 50 28V2C50 0.89543 49.1046 0 48 0Z" fill="#00457C"/>
    <path fill-rule="evenodd" clip-rule="evenodd" d="M39.2131 10.9969L38.2047 17.4128C38.1851 17.5369 38.2811 17.6494 38.4069 17.6494H39.4213C39.5892 17.6494 39.7324 17.5271 39.7583 17.3611L40.7528 11.0606C40.7724 10.9364 40.6764 10.8239 40.5503 10.8239H39.4156C39.3145 10.8239 39.2286 10.8971 39.2131 10.9969Z" fill="white"/>
    <path fill-rule="evenodd" clip-rule="evenodd" d="M26.5675 13.0965H25.3849C25.2718 13.0965 25.1659 13.1526 25.1026 13.2464L23.4711 15.649L22.7798 13.3401C22.7364 13.1957 22.6033 13.0965 22.4525 13.0965H21.2902C21.1498 13.0965 21.051 13.2346 21.0963 13.3674L22.3984 17.1899L21.1736 18.9181C21.0776 19.0537 21.1746 19.2412 21.3409 19.2412H22.5222C22.6341 19.2412 22.7389 19.1864 22.8029 19.0945L26.7357 13.4181C26.8298 13.2822 26.7329 13.0965 26.5675 13.0965Z" fill="white"/>
    <path fill-rule="evenodd" clip-rule="evenodd" d="M36.1865 15.3872C36.0728 16.0595 35.5393 16.5109 34.8585 16.5109C34.5173 16.5109 34.2439 16.401 34.0684 16.1932C33.8942 15.9872 33.8289 15.6936 33.884 15.3669C33.9898 14.7004 34.5322 14.2347 35.2026 14.2347C35.5368 14.2347 35.808 14.3456 35.987 14.5553C36.1672 14.7666 36.2382 15.0618 36.1865 15.3872ZM37.8263 13.097H36.6497C36.549 13.097 36.4631 13.1702 36.4473 13.27L36.3956 13.5989L36.3133 13.4797C36.0586 13.11 35.4905 12.9862 34.9235 12.9862C33.6236 12.9862 32.5132 13.9714 32.2972 15.353C32.1847 16.0424 32.3444 16.701 32.7353 17.1607C33.0942 17.583 33.6065 17.7588 34.217 17.7588C35.265 17.7588 35.846 17.0859 35.846 17.0859L35.7934 17.4128C35.7738 17.537 35.8697 17.6495 35.9958 17.6495H37.0552C37.2234 17.6495 37.3663 17.5275 37.3926 17.3615L38.0288 13.3337C38.0484 13.2095 37.9521 13.097 37.8263 13.097Z" fill="white"/>
    <path fill-rule="evenodd" clip-rule="evenodd" d="M18.6611 15.3872C18.5474 16.0595 18.0139 16.5109 17.3331 16.5109C16.9919 16.5109 16.7185 16.401 16.543 16.1932C16.369 15.9872 16.3035 15.6936 16.3586 15.3669C16.4644 14.7004 17.0068 14.2347 17.6771 14.2347C18.0113 14.2347 18.2825 14.3456 18.4615 14.5553C18.6418 14.7666 18.7127 15.0618 18.6611 15.3872ZM20.3009 13.097H19.1243C19.0235 13.097 18.9377 13.1702 18.9218 13.27L18.8702 13.5989L18.7881 13.4797C18.5331 13.11 17.9651 12.9862 17.398 12.9862C16.0982 12.9862 14.9878 13.9714 14.7717 15.353C14.6593 16.0424 14.8189 16.701 15.2099 17.1607C15.5688 17.583 16.0811 17.7588 16.6915 17.7588C17.7395 17.7588 18.3205 17.0859 18.3205 17.0859L18.2679 17.4128C18.2483 17.537 18.3443 17.6495 18.4704 17.6495H19.5298C19.698 17.6495 19.8409 17.5275 19.8672 17.3615L20.5033 13.3337C20.523 13.2095 20.4266 13.097 20.3009 13.097Z" fill="white"/>
    <path fill-rule="evenodd" clip-rule="evenodd" d="M13.2402 13.1252C13.1059 14.0071 12.4324 14.0071 11.7807 14.0071H11.4101L11.6702 12.3604C11.6857 12.2609 11.7715 12.1877 11.8723 12.1877H12.0424C12.4859 12.1877 12.9047 12.1877 13.1208 12.4402C13.2501 12.5913 13.289 12.8156 13.2402 13.1252ZM12.9567 10.8239H10.4996C10.3314 10.8239 10.1885 10.9462 10.1622 11.1122L9.1687 17.4128C9.14905 17.5369 9.24504 17.6494 9.37082 17.6494H10.5443C10.7122 17.6494 10.855 17.5271 10.8813 17.3614L11.1497 15.6615C11.1756 15.4955 11.3188 15.3732 11.4867 15.3732H12.2642C13.8827 15.3732 14.817 14.5901 15.0609 13.0374C15.1708 12.3588 15.0653 11.8253 14.7476 11.4518C14.3982 11.0412 13.7788 10.8239 12.9567 10.8239Z" fill="white"/>
    <path fill-rule="evenodd" clip-rule="evenodd" d="M30.7656 13.1252C30.6313 14.0071 29.9578 14.0071 29.3061 14.0071H28.9355L29.1956 12.3604C29.2111 12.2609 29.2969 12.1877 29.3977 12.1877H29.5678C30.0113 12.1877 30.4301 12.1877 30.6462 12.4402C30.7755 12.5913 30.8144 12.8156 30.7656 13.1252ZM30.4821 10.8239H28.025C27.8568 10.8239 27.7139 10.9462 27.6876 11.1122L26.6941 17.4128C26.6745 17.5369 26.7708 17.6494 26.8962 17.6494H28.1571C28.2746 17.6494 28.3747 17.5639 28.3931 17.4479L28.6751 15.6615C28.701 15.4955 28.8442 15.3732 29.0121 15.3732H29.7896C31.4081 15.3732 32.3424 14.5901 32.5863 13.0374C32.6962 12.3588 32.5907 11.8253 32.273 11.4518C31.9236 11.0412 31.3042 10.8239 30.4821 10.8239Z" fill="white"/>
</svg>
