<svg width="50" height="30" viewBox="0 0 50 30" fill="none" xmlns="http://www.w3.org/2000/svg">
<path d="M48 0H2C0.89543 0 0 0.89543 0 2V28C0 29.1046 0.89543 30 2 30H48C49.1046 30 50 29.1046 50 28V2C50 0.89543 49.1046 0 48 0Z" fill="#26337A"/>
<path fill-rule="evenodd" clip-rule="evenodd" d="M20.745 19.7734L22.2824 10.2363H24.7398L23.2026 19.7734H20.745Z" fill="white"/>
<path fill-rule="evenodd" clip-rule="evenodd" d="M32.1164 10.4705C31.6305 10.279 30.8663 10.0703 29.9144 10.0703C27.4848 10.0703 25.7745 11.3645 25.7603 13.2178C25.7449 14.5886 26.9808 15.3531 27.9125 15.8088C28.8701 16.2758 29.1918 16.5747 29.188 16.9923C29.1814 17.631 28.4237 17.9237 27.7171 17.9237C26.7332 17.9237 26.2105 17.7796 25.4023 17.4236L25.0862 17.2717L24.7426 19.4065C25.3156 19.6721 26.3779 19.9027 27.4804 19.9148C30.0625 19.9148 31.7403 18.6362 31.76 16.6572C31.7688 15.5702 31.114 14.7462 29.6958 14.0659C28.837 13.6237 28.31 13.3307 28.316 12.8831C28.3166 12.4868 28.7613 12.0624 29.7238 12.0624C30.5276 12.0495 31.1095 12.2351 31.5629 12.4289L31.7836 12.5379L32.1164 10.4705Z" fill="white"/>
<path fill-rule="evenodd" clip-rule="evenodd" d="M35.3886 16.3921C35.5923 15.844 36.3676 13.7264 36.3676 13.7264C36.3533 13.7516 36.5701 13.174 36.6942 12.8165L36.8601 13.6391C36.8601 13.6391 37.3317 15.9154 37.4288 16.3921H35.3886ZM38.4204 10.2461H36.5212C35.9322 10.2461 35.4913 10.4148 35.2332 11.0367L31.5837 19.7768H34.1649C34.1649 19.7768 34.586 18.601 34.6815 18.343C34.9631 18.343 37.4711 18.3479 37.8291 18.3479C37.9027 18.6807 38.1283 19.7768 38.1283 19.7768H40.4092L38.4204 10.2461Z" fill="white"/>
<path fill-rule="evenodd" clip-rule="evenodd" d="M18.6833 10.2441L16.2781 16.7461L16.0204 15.4244C15.5722 13.9016 14.1769 12.251 12.6162 11.424L14.8167 19.7648L17.4175 19.7633L21.2875 10.2441H18.6833Z" fill="white"/>
<path fill-rule="evenodd" clip-rule="evenodd" d="M14.0453 10.2383H10.0824L10.0498 10.4359C13.1334 11.2259 15.1736 13.1328 16.0205 15.425L15.1593 11.0429C15.0107 10.4386 14.5789 10.2594 14.0453 10.2383Z" fill="#ED982D"/>
</svg>
