<svg width="25" height="25" viewBox="0 0 25 25" fill="none" xmlns="http://www.w3.org/2000/svg">
<g clip-path="url(#clip0)">
<path d="M21.266 0.266602H3.73429C1.94821 0.266602 0.500244 1.71451 0.500244 3.50065V21.0324C0.500244 22.8186 1.94815 24.2665 3.73429 24.2665H12.3808L12.3956 15.6902H10.1675C9.8779 15.6902 9.64288 15.4561 9.64176 15.1665L9.63108 12.402C9.62996 12.1109 9.86569 11.8743 10.1568 11.8743H12.3809V9.20311C12.3809 6.10321 14.2741 4.4153 17.0394 4.4153H19.3086C19.5989 4.4153 19.8343 4.65066 19.8343 4.94104V7.27207C19.8343 7.56233 19.5991 7.79764 19.3089 7.79782L17.9163 7.79847C16.4125 7.79847 16.1212 8.51309 16.1212 9.56183V11.8744H19.4258C19.7406 11.8744 19.9849 12.1493 19.9478 12.462L19.6201 15.2265C19.5888 15.491 19.3645 15.6903 19.0981 15.6903H16.136L16.1212 24.2666H21.2661C23.0522 24.2666 24.5001 22.8187 24.5001 21.0326V3.50065C24.5 1.71451 23.0521 0.266602 21.266 0.266602Z" fill="#475993"/>
</g>
<defs>
<clipPath id="clip0">
<rect width="24" height="24" fill="white" transform="translate(0.5 0.266602)"/>
</clipPath>
</defs>
</svg>
