<svg width="25" height="25" viewBox="0 0 25 25" fill="none" xmlns="http://www.w3.org/2000/svg">
<g clip-path="url(#clip0)">
<path d="M22.329 0.266602H2.67099C1.472 0.266602 0.5 1.2386 0.5 2.4376V22.0955C0.5 23.2946 1.472 24.2666 2.67099 24.2666H22.3289C23.528 24.2666 24.5 23.2946 24.5 22.0955V2.4376C24.5 1.2386 23.528 0.266602 22.329 0.266602ZM7.92662 20.9898C7.92662 21.3387 7.64377 21.6216 7.29483 21.6216H4.60544C4.2565 21.6216 3.97365 21.3387 3.97365 20.9898V9.716C3.97365 9.36706 4.2565 9.08421 4.60544 9.08421H7.29483C7.64377 9.08421 7.92662 9.36706 7.92662 9.716V20.9898ZM5.95014 8.02149C4.5391 8.02149 3.3952 6.8776 3.3952 5.46656C3.3952 4.05552 4.5391 2.91163 5.95014 2.91163C7.36117 2.91163 8.50507 4.05552 8.50507 5.46656C8.50507 6.8776 7.36124 8.02149 5.95014 8.02149ZM21.9813 21.0407C21.9813 21.3615 21.7212 21.6216 21.4004 21.6216H18.5145C18.1937 21.6216 17.9335 21.3615 17.9335 21.0407V15.7526C17.9335 14.9638 18.1649 12.2958 15.872 12.2958C14.0934 12.2958 13.7327 14.122 13.6602 14.9415V21.0407C13.6602 21.3615 13.4002 21.6216 13.0793 21.6216H10.2882C9.96737 21.6216 9.70727 21.3615 9.70727 21.0407V9.66511C9.70727 9.34432 9.96737 9.08421 10.2882 9.08421H13.0793C13.4001 9.08421 13.6602 9.34432 13.6602 9.66511V10.6487C14.3197 9.65896 15.2998 8.89504 17.3866 8.89504C22.0077 8.89504 21.9813 13.2123 21.9813 15.5844V21.0407Z" fill="#0077B7"/>
</g>
<defs>
<clipPath id="clip0">
<rect width="24" height="24" fill="white" transform="translate(0.5 0.266602)"/>
</clipPath>
</defs>
</svg>
