<svg width="25" height="25" viewBox="0 0 25 25" fill="none" xmlns="http://www.w3.org/2000/svg">
<g clip-path="url(#clip0)">
<path d="M24.1183 4.60705C23.585 4.84351 23.0315 5.03005 22.4635 5.1651C23.0894 4.57036 23.5599 3.82647 23.8254 2.99615C23.9012 2.7591 23.6437 2.55413 23.4297 2.68104C22.6395 3.14975 21.7884 3.50136 20.8998 3.72623C20.8483 3.73928 20.7951 3.74589 20.7417 3.74589C20.5799 3.74589 20.4225 3.6858 20.2988 3.57673C19.3534 2.74354 18.1375 2.28467 16.8752 2.28467C16.329 2.28467 15.7775 2.36981 15.236 2.53774C13.5582 3.05811 12.2637 4.44204 11.8576 6.14949C11.7052 6.78993 11.664 7.43096 11.7349 8.05472C11.743 8.1264 11.7091 8.17643 11.6882 8.19989C11.6516 8.24103 11.5995 8.26461 11.5455 8.26461C11.5395 8.26461 11.5333 8.26432 11.5271 8.26373C7.85466 7.92254 4.54298 6.15323 2.20211 3.28181C2.08274 3.13535 1.85383 3.15332 1.75868 3.31651C1.30028 4.10295 1.05803 5.00243 1.05803 5.91771C1.05803 7.32042 1.62158 8.64232 2.60047 9.606C2.18882 9.5084 1.7904 9.35468 1.4203 9.14912C1.24124 9.04964 1.02093 9.1775 1.01842 9.3823C0.992788 11.4661 2.21282 13.3203 4.04046 14.1553C4.00365 14.1561 3.96684 14.1566 3.92998 14.1566C3.64028 14.1566 3.34694 14.1286 3.05823 14.0734C2.85659 14.0349 2.68719 14.2262 2.7498 14.4217C3.34302 16.2737 4.93766 17.6389 6.84593 17.9488C5.26218 19.012 3.41786 19.5728 1.49829 19.5728L0.899867 19.5724C0.715488 19.5724 0.559547 19.6926 0.51256 19.8712C0.466275 20.0471 0.551531 20.2326 0.708759 20.3241C2.8718 21.5829 5.33907 22.2482 7.84489 22.2482C10.0383 22.2482 12.0901 21.8129 13.9432 20.9545C15.6421 20.1676 17.1433 19.0426 18.4052 17.611C19.5808 16.2773 20.5 14.7377 21.1374 13.0351C21.7449 11.412 22.0661 9.68025 22.0661 8.02687V7.94811C22.066 7.68263 22.1861 7.43283 22.3956 7.26279C23.1905 6.61737 23.8827 5.85762 24.4529 5.00465C24.6035 4.77943 24.366 4.49716 24.1183 4.60705Z" fill="#76A9EA"/>
</g>
<defs>
<clipPath id="clip0">
<rect width="24" height="24" fill="white" transform="translate(0.5 0.266602)"/>
</clipPath>
</defs>
</svg>
