<svg width="25" height="25" viewBox="0 0 25 25" fill="none" xmlns="http://www.w3.org/2000/svg">
<g clip-path="url(#clip0)">
<path d="M11.918 0.280481C5.57962 0.582278 0.577751 5.86092 0.596979 12.2065C0.602834 14.1392 1.06942 15.9634 1.8925 17.5752L0.628777 23.7095C0.560417 24.0413 0.859688 24.3319 1.18932 24.2538L7.20019 22.8297C8.74447 23.5989 10.479 24.0433 12.3148 24.0713C18.7932 24.1702 24.1951 19.0262 24.397 12.5502C24.6135 5.60831 18.8841 -0.0512778 11.918 0.280481ZM19.0902 18.76C17.3299 20.5203 14.9894 21.4897 12.4999 21.4897C11.0423 21.4897 9.64671 21.1627 8.35187 20.5177L7.51478 20.1007L3.8295 20.9739L4.60523 17.2082L4.19283 16.4006C3.52065 15.0842 3.17982 13.6606 3.17982 12.1696C3.17982 9.68011 4.14927 7.33966 5.9096 5.57927C7.6542 3.83466 10.0329 2.84943 12.5001 2.84943C14.9896 2.84949 17.33 3.81894 19.0903 5.57921C20.8506 7.33954 21.8201 9.67999 21.8201 12.1694C21.8201 14.6367 20.8348 17.0154 19.0902 18.76Z" fill="#7AD06D"/>
<path d="M18.2768 14.751L15.9712 14.089C15.668 14.002 15.3416 14.0879 15.1208 14.313L14.5569 14.8874C14.3192 15.1296 13.9585 15.2075 13.6438 15.0802C12.5531 14.6388 10.2588 12.5989 9.67291 11.5785C9.50388 11.2842 9.53183 10.9162 9.73938 10.6476L10.2316 10.0108C10.4245 9.7613 10.4652 9.42621 10.3376 9.13779L9.36761 6.94388C9.13527 6.4184 8.46377 6.26544 8.02508 6.63646C7.38159 7.1807 6.61809 8.00775 6.52528 8.92398C6.36164 10.5394 7.05443 12.5757 9.67423 15.0209C12.7008 17.8457 15.1245 18.2189 16.7025 17.8366C17.5976 17.6198 18.3129 16.7507 18.7643 16.0391C19.0721 15.5539 18.8291 14.9096 18.2768 14.751Z" fill="#7AD06D"/>
</g>
<defs>
<clipPath id="clip0">
<rect width="24" height="24" fill="white" transform="translate(0.5 0.266602)"/>
</clipPath>
</defs>
</svg>
